# xmcd
#
# Track frame offsets:
#	150
#	13809
#	27199
#	45461
#	57385
#	72239
#	89386
#	101497
#	115074
#	127359
#	138811
#	150212
#	175461
#	185208
#
# Disc length: 2655 seconds
#
# Revision: 1
# Processed by: cddbd v1.5.2PL0 Copyright (c) Steve Scherf et al.
# Submitted via: EasyCDDAExtractor 7.0.3.1
#
DISCID=bf0a5d0e
DTITLE=Eddy Raven and Jo-El Sonnier - Cookin Cajun
DYEAR=1900
DGENRE=Country
TTITLE0=Jambalaya (On the Bayou)
TTITLE1=Colinda
TTITLE2=Tear-Stained Letter
TTITLE3=Fais Do Do
TTITLE4=Zydeco Lady
TTITLE5=No More One More Time
TTITLE6=Papa Thibodeaux
TTITLE7=Sugar Bee
TTITLE8=Good Deal Lucille
TTITLE9=I'm Gonna Get You
TTITLE10=Diggy Liggy Lo
TTITLE11=Louisiana 1927
TTITLE12=Cher Big Mamou
TTITLE13=Cher Jole Blon
EXTD=
EXTT0=
EXTT1=
EXTT2=
EXTT3=
EXTT4=
EXTT5=
EXTT6=
EXTT7=
EXTT8=
EXTT9=
EXTT10=
EXTT11=
EXTT12=
EXTT13=
PLAYORDER=
